PathFileType	4	(X/Y/Z)	D:\TRACE\spot_10-12-23\spot_body_motion_2_2-platform.trc
DataRate	CameraRate	NumFrames	NumMarkers	Units	OrigDataRate	OrigDataStartFrame	OrigNumFrames
100.00	100.00	      36	5	mm	100.00	2626	      7000
Frame#	Time	Left_Front			Right_Front			Left_Aft			Right_Aft			Post			
		X1	Y1	Z1	X2	Y2	Z2	X3	Y3	Z3	X4	Y4	Z4	X5	Y5	Z5	

2626	26.250	-732.17365	64.41720	-625.15240	840.36554	68.55352	-618.39563	-648.86456	-35.00748	508.28641	768.27472	-37.26942	594.40973	50.35714	826.64581	-877.63306	
2627	26.260	-732.41437	64.73396	-625.01129	840.19946	69.25385	-618.13306	-648.95618	-35.44952	508.78491	768.07629	-37.65015	594.55298	49.96355	827.44788	-876.70728	
2628	26.270	-732.78986	65.37231	-624.72430	839.95508	69.92279	-617.91113	-649.31775	-35.92499	508.93060	767.74902	-38.37041	594.65698	49.88889	828.00385	-875.75366	
2629	26.280	-732.88873	65.63303	-624.46576	839.73627	70.25626	-617.78796	-649.81219	-36.41335	509.01337	767.42950	-38.89608	594.79944	49.16027	828.97894	-874.97760	
2630	26.290	-733.52527	66.26070	-624.27759	839.16827	70.83573	-617.67310	-650.13776	-36.80206	508.97559	767.15710	-39.32661	594.85211	48.92237	829.69702	-874.31519	
2631	26.300	-733.89771	66.62788	-624.09766	838.44153	71.37708	-617.59753	-650.56696	-37.02075	509.15549	766.80328	-39.74697	594.90942	48.46887	830.27960	-873.71985	
2632	26.310	-734.37964	67.19983	-623.92938	838.01935	71.63778	-617.45929	-651.16736	-37.24672	508.95007	766.34760	-40.13842	595.01947	47.99827	830.76953	-873.20612	
2633	26.320	-734.92993	67.84792	-623.86011	837.34253	72.17923	-617.24316	-651.63727	-37.79974	509.27744	765.76202	-40.58451	595.11322	47.21438	831.57947	-872.61517	
2634	26.330	-735.49664	68.42880	-623.77972	836.96625	72.49097	-617.09192	-651.97614	-37.92979	509.08902	765.13239	-40.95784	595.14893	46.89366	832.26044	-872.04120	
2635	26.340	-735.88379	68.65096	-623.67920	836.56366	72.90394	-616.99573	-652.41760	-38.32109	509.41690	764.63593	-41.10161	595.19165	46.47728	832.80640	-871.63702	
2636	26.350	-736.34045	68.88574	-623.57300	836.16809	73.32285	-616.82886	-653.06049	-38.47337	509.25827	764.26770	-41.31443	595.18982	46.38368	833.20746	-871.11584	
2637	26.360	-737.03699	69.28963	-623.49255	835.88672	73.58759	-616.68915	-653.44202	-38.62588	509.29211	763.73114	-41.62183	595.21338	45.62359	833.65247	-870.53668	
2638	26.370	-737.47955	69.40359	-623.25903	835.17670	73.73597	-616.64911	-653.92261	-38.73902	509.32687	763.28894	-41.86517	595.25378	45.04620	834.00476	-869.86359	
2639	26.380	-737.99854	69.48330	-623.15253	834.48016	73.91354	-616.50385	-654.74530	-38.92541	509.34100	762.74780	-42.19471	595.28668	44.30888	834.14685	-869.60077	
2640	26.390	-738.73932	69.79623	-623.19763	833.84216	74.12737	-616.43622	-655.43127	-39.09257	509.36316	762.08234	-42.36625	595.29108	43.75358	834.28162	-869.19073	
2641	26.400	-739.18103	69.89820	-623.17737	833.37219	74.30499	-616.43268	-655.99805	-39.13967	509.43848	761.32275	-42.39348	595.36414	43.29721	834.42755	-869.04865	
2642	26.410	-739.93860	70.08755	-623.09698	832.98383	74.44637	-616.39990	-656.45630	-39.31370	509.48163	760.77252	-42.43540	595.33398	42.80576	834.53473	-868.78699	
2643	26.420	-740.55316	70.28235	-623.07990	832.16339	74.44387	-616.49121	-657.12512	-39.39355	509.38821	760.27563	-42.52960	595.32397	42.07037	834.69928	-868.59821	
2644	26.430	-741.08325	70.23168	-623.13281	831.34204	74.41158	-616.35614	-657.78882	-39.38185	509.43256	759.93011	-42.62596	595.30389	41.34982	834.82825	-868.64459	
2645	26.440	-741.70105	70.22977	-623.13385	830.75580	74.35593	-616.41614	-658.50421	-39.38201	509.42957	758.91022	-42.58531	595.30841	40.88285	834.81049	-868.82196	
2646	26.450	-742.38593	70.18835	-623.22583	830.30890	74.43938	-616.39240	-659.15070	-39.35359	509.28116	758.16034	-42.50277	595.45490	40.35089	834.88019	-868.87695	
2647	26.460	-743.36420	70.05210	-623.06396	829.65845	74.54029	-616.44971	-659.76007	-39.24903	509.30823	757.57904	-42.41714	595.51776	39.21188	834.85706	-869.20715	
2648	26.470	-744.05023	69.98019	-623.22070	828.52759	74.39040	-616.65515	-660.64032	-39.02446	509.30719	756.71686	-42.27072	595.49237	38.29965	834.60742	-869.35608	
2649	26.480	-744.52521	69.87770	-623.26813	827.64886	74.13556	-616.60077	-661.38214	-39.07590	509.32520	755.89819	-42.30662	595.35919	37.91132	834.26526	-869.39948	
2650	26.490	-745.37177	69.76120	-623.35138	827.19342	74.04028	-616.46155	-661.98633	-39.05034	509.33615	755.13068	-42.17725	595.29413	37.31265	834.02075	-869.50409	
2651	26.500	-746.02448	69.43636	-623.34735	826.48230	73.76684	-616.56750	-662.80774	-38.89646	509.38568	754.58606	-41.96790	595.27197	36.26773	833.84827	-870.01630	
2652	26.510	-747.15729	69.37788	-623.36505	825.54285	73.52025	-616.70343	-663.55780	-38.83207	509.26428	753.74109	-41.68493	595.31683	35.63255	833.56427	-870.25867	
2653	26.520	-747.89874	69.39059	-623.43811	824.86823	73.40596	-616.71710	-664.47583	-38.51791	509.09985	753.08020	-41.50568	595.24091	34.93427	833.25800	-870.51477	
2654	26.530	-748.47357	68.78363	-623.57068	824.03571	73.12363	-616.92798	-665.18909	-38.19651	509.07935	752.16376	-41.10031	595.17871	34.12439	832.75952	-870.88263	
2655	26.540	-749.46423	68.32199	-623.77850	823.10022	72.48959	-617.15460	-665.98859	-38.01706	509.12302	751.33307	-40.80112	595.19244	32.93787	832.23029	-871.35889	
2656	26.550	-750.29419	67.90787	-623.88690	822.33563	72.12279	-617.09387	-666.78986	-37.86789	509.36157	750.46234	-40.58362	595.18695	32.26922	831.72699	-871.80536	
2657	26.560	-751.13611	67.42143	-623.91040	821.50397	71.86099	-617.23077	-667.66711	-37.58571	509.02341	749.50879	-40.35090	595.00732	30.88200	831.15717	-872.63867	
2658	26.570	-751.84052	66.94024	-624.00861	820.70886	71.40369	-617.38556	-668.64063	-36.95477	508.87631	748.60248	-39.99033	594.98633	30.18371	830.63708	-873.34784	
2659	26.580	-752.89685	66.65818	-624.42560	819.68225	70.77283	-617.65485	-669.56049	-36.59087	508.75662	747.91443	-39.45226	595.02704	29.60449	829.86340	-874.08905	
2660	26.590	-753.96729	66.07262	-624.51068	818.72632	70.37019	-617.85785	-670.34998	-36.29162	508.72861	746.84052	-38.87885	594.83911	28.60966	828.90283	-875.06238	
2661	26.600	-754.70740	65.48952	-624.69446	817.84271	69.76202	-618.08563	-671.14532	-35.90091	508.62042	745.96198	-38.59644	594.75574	28.05529	828.28754	-876.00879	
